# Tiled2Unity generated file. Do not modify by hand.
# Wavefront file for 'Map_mesh_0003.obj'

# Vertices (Count = 776)
v -20 -17 0
v -21 -17 0
v -21 -16 0
v -20 -16 0
v -21 -17 0
v -22 -17 0
v -22 -16 0
v -21 -16 0
v -22 -17 0
v -23 -17 0
v -23 -16 0
v -22 -16 0
v -23 -17 0
v -24 -17 0
v -24 -16 0
v -23 -16 0
v -24 -17 0
v -25 -17 0
v -25 -16 0
v -24 -16 0
v -25 -17 0
v -26 -17 0
v -26 -16 0
v -25 -16 0
v -26 -17 0
v -27 -17 0
v -27 -16 0
v -26 -16 0
v -27 -17 0
v -28 -17 0
v -28 -16 0
v -27 -16 0
v -28 -17 0
v -29 -17 0
v -29 -16 0
v -28 -16 0
v -29 -17 0
v -30 -17 0
v -30 -16 0
v -29 -16 0
v -30 -17 0
v -31 -17 0
v -31 -16 0
v -30 -16 0
v -31 -17 0
v -32 -17 0
v -32 -16 0
v -31 -16 0
v -20 -18 0
v -21 -18 0
v -21 -17 0
v -20 -17 0
v -21 -18 0
v -22 -18 0
v -22 -17 0
v -21 -17 0
v -22 -18 0
v -23 -18 0
v -23 -17 0
v -22 -17 0
v -23 -18 0
v -24 -18 0
v -24 -17 0
v -23 -17 0
v -24 -18 0
v -25 -18 0
v -25 -17 0
v -24 -17 0
v -25 -18 0
v -26 -18 0
v -26 -17 0
v -25 -17 0
v -26 -18 0
v -27 -18 0
v -27 -17 0
v -26 -17 0
v -27 -18 0
v -28 -18 0
v -28 -17 0
v -27 -17 0
v -28 -18 0
v -29 -18 0
v -29 -17 0
v -28 -17 0
v -29 -18 0
v -30 -18 0
v -30 -17 0
v -29 -17 0
v -30 -18 0
v -31 -18 0
v -31 -17 0
v -30 -17 0
v -31 -18 0
v -32 -18 0
v -32 -17 0
v -31 -17 0
v -22 -19 0
v -23 -19 0
v -23 -18 0
v -22 -18 0
v -23 -19 0
v -24 -19 0
v -24 -18 0
v -23 -18 0
v -24 -19 0
v -25 -19 0
v -25 -18 0
v -24 -18 0
v -25 -19 0
v -26 -19 0
v -26 -18 0
v -25 -18 0
v -26 -19 0
v -27 -19 0
v -27 -18 0
v -26 -18 0
v -27 -19 0
v -28 -19 0
v -28 -18 0
v -27 -18 0
v -28 -19 0
v -29 -19 0
v -29 -18 0
v -28 -18 0
v -29 -19 0
v -30 -19 0
v -30 -18 0
v -29 -18 0
v -30 -19 0
v -31 -19 0
v -31 -18 0
v -30 -18 0
v -31 -19 0
v -32 -19 0
v -32 -18 0
v -31 -18 0
v -32 -19 0
v -33 -19 0
v -33 -18 0
v -32 -18 0
v -33 -19 0
v -34 -19 0
v -34 -18 0
v -33 -18 0
v -22 -20 0
v -23 -20 0
v -23 -19 0
v -22 -19 0
v -23 -20 0
v -24 -20 0
v -24 -19 0
v -23 -19 0
v -24 -20 0
v -25 -20 0
v -25 -19 0
v -24 -19 0
v -25 -20 0
v -26 -20 0
v -26 -19 0
v -25 -19 0
v -26 -20 0
v -27 -20 0
v -27 -19 0
v -26 -19 0
v -27 -20 0
v -28 -20 0
v -28 -19 0
v -27 -19 0
v -28 -20 0
v -29 -20 0
v -29 -19 0
v -28 -19 0
v -29 -20 0
v -30 -20 0
v -30 -19 0
v -29 -19 0
v -30 -20 0
v -31 -20 0
v -31 -19 0
v -30 -19 0
v -31 -20 0
v -32 -20 0
v -32 -19 0
v -31 -19 0
v -32 -20 0
v -33 -20 0
v -33 -19 0
v -32 -19 0
v -33 -20 0
v -34 -20 0
v -34 -19 0
v -33 -19 0
v -22 -21 0
v -23 -21 0
v -23 -20 0
v -22 -20 0
v -23 -21 0
v -24 -21 0
v -24 -20 0
v -23 -20 0
v -24 -21 0
v -25 -21 0
v -25 -20 0
v -24 -20 0
v -25 -21 0
v -26 -21 0
v -26 -20 0
v -25 -20 0
v -26 -21 0
v -27 -21 0
v -27 -20 0
v -26 -20 0
v -27 -21 0
v -28 -21 0
v -28 -20 0
v -27 -20 0
v -28 -21 0
v -29 -21 0
v -29 -20 0
v -28 -20 0
v -29 -21 0
v -30 -21 0
v -30 -20 0
v -29 -20 0
v -30 -21 0
v -31 -21 0
v -31 -20 0
v -30 -20 0
v -31 -21 0
v -32 -21 0
v -32 -20 0
v -31 -20 0
v -32 -21 0
v -33 -21 0
v -33 -20 0
v -32 -20 0
v -33 -21 0
v -34 -21 0
v -34 -20 0
v -33 -20 0
v -22 -22 0
v -23 -22 0
v -23 -21 0
v -22 -21 0
v -23 -22 0
v -24 -22 0
v -24 -21 0
v -23 -21 0
v -24 -22 0
v -25 -22 0
v -25 -21 0
v -24 -21 0
v -25 -22 0
v -26 -22 0
v -26 -21 0
v -25 -21 0
v -26 -22 0
v -27 -22 0
v -27 -21 0
v -26 -21 0
v -27 -22 0
v -28 -22 0
v -28 -21 0
v -27 -21 0
v -28 -22 0
v -29 -22 0
v -29 -21 0
v -28 -21 0
v -29 -22 0
v -30 -22 0
v -30 -21 0
v -29 -21 0
v -30 -22 0
v -31 -22 0
v -31 -21 0
v -30 -21 0
v -31 -22 0
v -32 -22 0
v -32 -21 0
v -31 -21 0
v -32 -22 0
v -33 -22 0
v -33 -21 0
v -32 -21 0
v -33 -22 0
v -34 -22 0
v -34 -21 0
v -33 -21 0
v -22 -23 0
v -23 -23 0
v -23 -22 0
v -22 -22 0
v -23 -23 0
v -24 -23 0
v -24 -22 0
v -23 -22 0
v -24 -23 0
v -25 -23 0
v -25 -22 0
v -24 -22 0
v -25 -23 0
v -26 -23 0
v -26 -22 0
v -25 -22 0
v -26 -23 0
v -27 -23 0
v -27 -22 0
v -26 -22 0
v -27 -23 0
v -28 -23 0
v -28 -22 0
v -27 -22 0
v -28 -23 0
v -29 -23 0
v -29 -22 0
v -28 -22 0
v -29 -23 0
v -30 -23 0
v -30 -22 0
v -29 -22 0
v -30 -23 0
v -31 -23 0
v -31 -22 0
v -30 -22 0
v -31 -23 0
v -32 -23 0
v -32 -22 0
v -31 -22 0
v -32 -23 0
v -33 -23 0
v -33 -22 0
v -32 -22 0
v -33 -23 0
v -34 -23 0
v -34 -22 0
v -33 -22 0
v -22 -24 0
v -23 -24 0
v -23 -23 0
v -22 -23 0
v -23 -24 0
v -24 -24 0
v -24 -23 0
v -23 -23 0
v -24 -24 0
v -25 -24 0
v -25 -23 0
v -24 -23 0
v -25 -24 0
v -26 -24 0
v -26 -23 0
v -25 -23 0
v -26 -24 0
v -27 -24 0
v -27 -23 0
v -26 -23 0
v -27 -24 0
v -28 -24 0
v -28 -23 0
v -27 -23 0
v -28 -24 0
v -29 -24 0
v -29 -23 0
v -28 -23 0
v -29 -24 0
v -30 -24 0
v -30 -23 0
v -29 -23 0
v -30 -24 0
v -31 -24 0
v -31 -23 0
v -30 -23 0
v -31 -24 0
v -32 -24 0
v -32 -23 0
v -31 -23 0
v -32 -24 0
v -33 -24 0
v -33 -23 0
v -32 -23 0
v -33 -24 0
v -34 -24 0
v -34 -23 0
v -33 -23 0
v -22 -25 0
v -23 -25 0
v -23 -24 0
v -22 -24 0
v -23 -25 0
v -24 -25 0
v -24 -24 0
v -23 -24 0
v -24 -25 0
v -25 -25 0
v -25 -24 0
v -24 -24 0
v -25 -25 0
v -26 -25 0
v -26 -24 0
v -25 -24 0
v -26 -25 0
v -27 -25 0
v -27 -24 0
v -26 -24 0
v -27 -25 0
v -28 -25 0
v -28 -24 0
v -27 -24 0
v -28 -25 0
v -29 -25 0
v -29 -24 0
v -28 -24 0
v -29 -25 0
v -30 -25 0
v -30 -24 0
v -29 -24 0
v -30 -25 0
v -31 -25 0
v -31 -24 0
v -30 -24 0
v -31 -25 0
v -32 -25 0
v -32 -24 0
v -31 -24 0
v -32 -25 0
v -33 -25 0
v -33 -24 0
v -32 -24 0
v -33 -25 0
v -34 -25 0
v -34 -24 0
v -33 -24 0
v -22 -26 0
v -23 -26 0
v -23 -25 0
v -22 -25 0
v -23 -26 0
v -24 -26 0
v -24 -25 0
v -23 -25 0
v -24 -26 0
v -25 -26 0
v -25 -25 0
v -24 -25 0
v -25 -26 0
v -26 -26 0
v -26 -25 0
v -25 -25 0
v -26 -26 0
v -27 -26 0
v -27 -25 0
v -26 -25 0
v -27 -26 0
v -28 -26 0
v -28 -25 0
v -27 -25 0
v -28 -26 0
v -29 -26 0
v -29 -25 0
v -28 -25 0
v -29 -26 0
v -30 -26 0
v -30 -25 0
v -29 -25 0
v -30 -26 0
v -31 -26 0
v -31 -25 0
v -30 -25 0
v -31 -26 0
v -32 -26 0
v -32 -25 0
v -31 -25 0
v -32 -26 0
v -33 -26 0
v -33 -25 0
v -32 -25 0
v -33 -26 0
v -34 -26 0
v -34 -25 0
v -33 -25 0
v -22 -27 0
v -23 -27 0
v -23 -26 0
v -22 -26 0
v -23 -27 0
v -24 -27 0
v -24 -26 0
v -23 -26 0
v -24 -27 0
v -25 -27 0
v -25 -26 0
v -24 -26 0
v -25 -27 0
v -26 -27 0
v -26 -26 0
v -25 -26 0
v -26 -27 0
v -27 -27 0
v -27 -26 0
v -26 -26 0
v -27 -27 0
v -28 -27 0
v -28 -26 0
v -27 -26 0
v -28 -27 0
v -29 -27 0
v -29 -26 0
v -28 -26 0
v -29 -27 0
v -30 -27 0
v -30 -26 0
v -29 -26 0
v -30 -27 0
v -31 -27 0
v -31 -26 0
v -30 -26 0
v -31 -27 0
v -32 -27 0
v -32 -26 0
v -31 -26 0
v -32 -27 0
v -33 -27 0
v -33 -26 0
v -32 -26 0
v -33 -27 0
v -34 -27 0
v -34 -26 0
v -33 -26 0
v -22 -28 0
v -23 -28 0
v -23 -27 0
v -22 -27 0
v -23 -28 0
v -24 -28 0
v -24 -27 0
v -23 -27 0
v -24 -28 0
v -25 -28 0
v -25 -27 0
v -24 -27 0
v -25 -28 0
v -26 -28 0
v -26 -27 0
v -25 -27 0
v -26 -28 0
v -27 -28 0
v -27 -27 0
v -26 -27 0
v -27 -28 0
v -28 -28 0
v -28 -27 0
v -27 -27 0
v -28 -28 0
v -29 -28 0
v -29 -27 0
v -28 -27 0
v -29 -28 0
v -30 -28 0
v -30 -27 0
v -29 -27 0
v -30 -28 0
v -31 -28 0
v -31 -27 0
v -30 -27 0
v -31 -28 0
v -32 -28 0
v -32 -27 0
v -31 -27 0
v -32 -28 0
v -33 -28 0
v -33 -27 0
v -32 -27 0
v -33 -28 0
v -34 -28 0
v -34 -27 0
v -33 -27 0
v -22 -29 0
v -23 -29 0
v -23 -28 0
v -22 -28 0
v -23 -29 0
v -24 -29 0
v -24 -28 0
v -23 -28 0
v -24 -29 0
v -25 -29 0
v -25 -28 0
v -24 -28 0
v -25 -29 0
v -26 -29 0
v -26 -28 0
v -25 -28 0
v -26 -29 0
v -27 -29 0
v -27 -28 0
v -26 -28 0
v -27 -29 0
v -28 -29 0
v -28 -28 0
v -27 -28 0
v -28 -29 0
v -29 -29 0
v -29 -28 0
v -28 -28 0
v -29 -29 0
v -30 -29 0
v -30 -28 0
v -29 -28 0
v -30 -29 0
v -31 -29 0
v -31 -28 0
v -30 -28 0
v -31 -29 0
v -32 -29 0
v -32 -28 0
v -31 -28 0
v -32 -29 0
v -33 -29 0
v -33 -28 0
v -32 -28 0
v -33 -29 0
v -34 -29 0
v -34 -28 0
v -33 -28 0
v -20 -30 0
v -21 -30 0
v -21 -29 0
v -20 -29 0
v -21 -30 0
v -22 -30 0
v -22 -29 0
v -21 -29 0
v -22 -30 0
v -23 -30 0
v -23 -29 0
v -22 -29 0
v -23 -30 0
v -24 -30 0
v -24 -29 0
v -23 -29 0
v -24 -30 0
v -25 -30 0
v -25 -29 0
v -24 -29 0
v -25 -30 0
v -26 -30 0
v -26 -29 0
v -25 -29 0
v -26 -30 0
v -27 -30 0
v -27 -29 0
v -26 -29 0
v -27 -30 0
v -28 -30 0
v -28 -29 0
v -27 -29 0
v -28 -30 0
v -29 -30 0
v -29 -29 0
v -28 -29 0
v -29 -30 0
v -30 -30 0
v -30 -29 0
v -29 -29 0
v -30 -30 0
v -31 -30 0
v -31 -29 0
v -30 -29 0
v -31 -30 0
v -32 -30 0
v -32 -29 0
v -31 -29 0
v -32 -30 0
v -33 -30 0
v -33 -29 0
v -32 -29 0
v -33 -30 0
v -34 -30 0
v -34 -29 0
v -33 -29 0
v -20 -31 0
v -21 -31 0
v -21 -30 0
v -20 -30 0
v -21 -31 0
v -22 -31 0
v -22 -30 0
v -21 -30 0
v -22 -31 0
v -23 -31 0
v -23 -30 0
v -22 -30 0
v -23 -31 0
v -24 -31 0
v -24 -30 0
v -23 -30 0
v -24 -31 0
v -25 -31 0
v -25 -30 0
v -24 -30 0
v -25 -31 0
v -26 -31 0
v -26 -30 0
v -25 -30 0
v -26 -31 0
v -27 -31 0
v -27 -30 0
v -26 -30 0
v -27 -31 0
v -28 -31 0
v -28 -30 0
v -27 -30 0
v -28 -31 0
v -29 -31 0
v -29 -30 0
v -28 -30 0
v -29 -31 0
v -30 -31 0
v -30 -30 0
v -29 -30 0
v -30 -31 0
v -31 -31 0
v -31 -30 0
v -30 -30 0
v -31 -31 0
v -32 -31 0
v -32 -30 0
v -31 -30 0
v -20 -32 0
v -21 -32 0
v -21 -31 0
v -20 -31 0
v -21 -32 0
v -22 -32 0
v -22 -31 0
v -21 -31 0
v -22 -32 0
v -23 -32 0
v -23 -31 0
v -22 -31 0
v -23 -32 0
v -24 -32 0
v -24 -31 0
v -23 -31 0
v -24 -32 0
v -25 -32 0
v -25 -31 0
v -24 -31 0
v -25 -32 0
v -26 -32 0
v -26 -31 0
v -25 -31 0
v -26 -32 0
v -27 -32 0
v -27 -31 0
v -26 -31 0
v -27 -32 0
v -28 -32 0
v -28 -31 0
v -27 -31 0
v -28 -32 0
v -29 -32 0
v -29 -31 0
v -28 -31 0
v -29 -32 0
v -30 -32 0
v -30 -31 0
v -29 -31 0
v -30 -32 0
v -31 -32 0
v -31 -31 0
v -30 -31 0
v -31 -32 0
v -32 -32 0
v -32 -31 0
v -31 -31 0

# Texture cooridinates (Count = 227)
vt 0.125 0.9375
vt 0.1875 0.9375
vt 0.1875 1
vt 0.125 1
vt 0.25 0.9375
vt 0.25 1
vt 0.3125 0.9375
vt 0.3125 1
vt 0.375 0.9375
vt 0.375 1
vt 0.4375 0.9375
vt 0.4375 1
vt 0.5 0.9375
vt 0.5 1
vt 0.5625 0.9375
vt 0.5625 1
vt 0.625 0.9375
vt 0.625 1
vt 0.6875 0.9375
vt 0.6875 1
vt 0.75 0.9375
vt 0.75 1
vt 0.8125 0.9375
vt 0.8125 1
vt 0.875 0.9375
vt 0.875 1
vt 0.125 0.875
vt 0.1875 0.875
vt 0.25 0.875
vt 0.3125 0.875
vt 0.375 0.875
vt 0.4375 0.875
vt 0.5 0.875
vt 0.5625 0.875
vt 0.625 0.875
vt 0.6875 0.875
vt 0.75 0.875
vt 0.8125 0.875
vt 0.875 0.875
vt 0.25 0.8125
vt 0.3125 0.8125
vt 0.375 0.8125
vt 0.4375 0.8125
vt 0.5 0.8125
vt 0.5625 0.8125
vt 0.625 0.8125
vt 0.6875 0.8125
vt 0.75 0.8125
vt 0.8125 0.8125
vt 0.875 0.8125
vt 0.9375 0.8125
vt 0.9375 0.875
vt 1 0.8125
vt 1 0.875
vt 0.25 0.75
vt 0.3125 0.75
vt 0.375 0.75
vt 0.4375 0.75
vt 0.5 0.75
vt 0.5625 0.75
vt 0.625 0.75
vt 0.6875 0.75
vt 0.75 0.75
vt 0.8125 0.75
vt 0.875 0.75
vt 0.9375 0.75
vt 1 0.75
vt 0.25 0.6875
vt 0.3125 0.6875
vt 0.375 0.6875
vt 0.4375 0.6875
vt 0.5 0.6875
vt 0.5625 0.6875
vt 0.625 0.6875
vt 0.6875 0.6875
vt 0.75 0.6875
vt 0.8125 0.6875
vt 0.875 0.6875
vt 0.9375 0.6875
vt 1 0.6875
vt 0.25 0.625
vt 0.3125 0.625
vt 0.375 0.625
vt 0.4375 0.625
vt 0.5 0.625
vt 0.5625 0.625
vt 0.625 0.625
vt 0.6875 0.625
vt 0.75 0.625
vt 0.8125 0.625
vt 0.875 0.625
vt 0.9375 0.625
vt 1 0.625
vt 0.25 0.5625
vt 0.3125 0.5625
vt 0.375 0.5625
vt 0.4375 0.5625
vt 0.5 0.5625
vt 0.5625 0.5625
vt 0.625 0.5625
vt 0.6875 0.5625
vt 0.75 0.5625
vt 0.8125 0.5625
vt 0.875 0.5625
vt 0.9375 0.5625
vt 1 0.5625
vt 0.25 0.5
vt 0.3125 0.5
vt 0.375 0.5
vt 0.4375 0.5
vt 0.5 0.5
vt 0.5625 0.5
vt 0.625 0.5
vt 0.6875 0.5
vt 0.75 0.5
vt 0.8125 0.5
vt 0.875 0.5
vt 0.9375 0.5
vt 1 0.5
vt 0.25 0.4375
vt 0.3125 0.4375
vt 0.375 0.4375
vt 0.4375 0.4375
vt 0.5 0.4375
vt 0.5625 0.4375
vt 0.625 0.4375
vt 0.6875 0.4375
vt 0.75 0.4375
vt 0.8125 0.4375
vt 0.875 0.4375
vt 0.9375 0.4375
vt 1 0.4375
vt 0.25 0.375
vt 0.3125 0.375
vt 0.375 0.375
vt 0.4375 0.375
vt 0.5 0.375
vt 0.5625 0.375
vt 0.625 0.375
vt 0.6875 0.375
vt 0.75 0.375
vt 0.8125 0.375
vt 0.875 0.375
vt 0.9375 0.375
vt 1 0.375
vt 0.25 0.3125
vt 0.3125 0.3125
vt 0.375 0.3125
vt 0.4375 0.3125
vt 0.5 0.3125
vt 0.5625 0.3125
vt 0.625 0.3125
vt 0.6875 0.3125
vt 0.75 0.3125
vt 0.8125 0.3125
vt 0.875 0.3125
vt 0.9375 0.3125
vt 1 0.3125
vt 0.25 0.25
vt 0.3125 0.25
vt 0.375 0.25
vt 0.4375 0.25
vt 0.5 0.25
vt 0.5625 0.25
vt 0.625 0.25
vt 0.6875 0.25
vt 0.75 0.25
vt 0.8125 0.25
vt 0.875 0.25
vt 0.9375 0.25
vt 1 0.25
vt 0.25 0.1875
vt 0.3125 0.1875
vt 0.375 0.1875
vt 0.4375 0.1875
vt 0.5 0.1875
vt 0.5625 0.1875
vt 0.625 0.1875
vt 0.6875 0.1875
vt 0.75 0.1875
vt 0.8125 0.1875
vt 0.875 0.1875
vt 0.9375 0.1875
vt 1 0.1875
vt 0.125 0.125
vt 0.1875 0.125
vt 0.1875 0.1875
vt 0.125 0.1875
vt 0.25 0.125
vt 0.3125 0.125
vt 0.375 0.125
vt 0.4375 0.125
vt 0.5 0.125
vt 0.5625 0.125
vt 0.625 0.125
vt 0.6875 0.125
vt 0.75 0.125
vt 0.8125 0.125
vt 0.875 0.125
vt 0.9375 0.125
vt 1 0.125
vt 0.125 0.0625
vt 0.1875 0.0625
vt 0.25 0.0625
vt 0.3125 0.0625
vt 0.375 0.0625
vt 0.4375 0.0625
vt 0.5 0.0625
vt 0.5625 0.0625
vt 0.625 0.0625
vt 0.6875 0.0625
vt 0.75 0.0625
vt 0.8125 0.0625
vt 0.875 0.0625
vt 0.125 0
vt 0.1875 0
vt 0.25 0
vt 0.3125 0
vt 0.375 0
vt 0.4375 0
vt 0.5 0
vt 0.5625 0
vt 0.625 0
vt 0.6875 0
vt 0.75 0
vt 0.8125 0
vt 0.875 0

# Normal
vn 0 0 -1

# Mesh description
g Map_mesh_0003

# Faces
f 1/1/1 2/2/1 3/3/1 4/4/1
f 5/2/1 6/5/1 7/6/1 8/3/1
f 9/5/1 10/7/1 11/8/1 12/6/1
f 13/7/1 14/9/1 15/10/1 16/8/1
f 17/9/1 18/11/1 19/12/1 20/10/1
f 21/11/1 22/13/1 23/14/1 24/12/1
f 25/13/1 26/15/1 27/16/1 28/14/1
f 29/15/1 30/17/1 31/18/1 32/16/1
f 33/17/1 34/19/1 35/20/1 36/18/1
f 37/19/1 38/21/1 39/22/1 40/20/1
f 41/21/1 42/23/1 43/24/1 44/22/1
f 45/23/1 46/25/1 47/26/1 48/24/1
f 49/27/1 50/28/1 51/2/1 52/1/1
f 53/28/1 54/29/1 55/5/1 56/2/1
f 57/29/1 58/30/1 59/7/1 60/5/1
f 61/30/1 62/31/1 63/9/1 64/7/1
f 65/31/1 66/32/1 67/11/1 68/9/1
f 69/32/1 70/33/1 71/13/1 72/11/1
f 73/33/1 74/34/1 75/15/1 76/13/1
f 77/34/1 78/35/1 79/17/1 80/15/1
f 81/35/1 82/36/1 83/19/1 84/17/1
f 85/36/1 86/37/1 87/21/1 88/19/1
f 89/37/1 90/38/1 91/23/1 92/21/1
f 93/38/1 94/39/1 95/25/1 96/23/1
f 97/40/1 98/41/1 99/30/1 100/29/1
f 101/41/1 102/42/1 103/31/1 104/30/1
f 105/42/1 106/43/1 107/32/1 108/31/1
f 109/43/1 110/44/1 111/33/1 112/32/1
f 113/44/1 114/45/1 115/34/1 116/33/1
f 117/45/1 118/46/1 119/35/1 120/34/1
f 121/46/1 122/47/1 123/36/1 124/35/1
f 125/47/1 126/48/1 127/37/1 128/36/1
f 129/48/1 130/49/1 131/38/1 132/37/1
f 133/49/1 134/50/1 135/39/1 136/38/1
f 137/50/1 138/51/1 139/52/1 140/39/1
f 141/51/1 142/53/1 143/54/1 144/52/1
f 145/55/1 146/56/1 147/41/1 148/40/1
f 149/56/1 150/57/1 151/42/1 152/41/1
f 153/57/1 154/58/1 155/43/1 156/42/1
f 157/58/1 158/59/1 159/44/1 160/43/1
f 161/59/1 162/60/1 163/45/1 164/44/1
f 165/60/1 166/61/1 167/46/1 168/45/1
f 169/61/1 170/62/1 171/47/1 172/46/1
f 173/62/1 174/63/1 175/48/1 176/47/1
f 177/63/1 178/64/1 179/49/1 180/48/1
f 181/64/1 182/65/1 183/50/1 184/49/1
f 185/65/1 186/66/1 187/51/1 188/50/1
f 189/66/1 190/67/1 191/53/1 192/51/1
f 193/68/1 194/69/1 195/56/1 196/55/1
f 197/69/1 198/70/1 199/57/1 200/56/1
f 201/70/1 202/71/1 203/58/1 204/57/1
f 205/71/1 206/72/1 207/59/1 208/58/1
f 209/72/1 210/73/1 211/60/1 212/59/1
f 213/73/1 214/74/1 215/61/1 216/60/1
f 217/74/1 218/75/1 219/62/1 220/61/1
f 221/75/1 222/76/1 223/63/1 224/62/1
f 225/76/1 226/77/1 227/64/1 228/63/1
f 229/77/1 230/78/1 231/65/1 232/64/1
f 233/78/1 234/79/1 235/66/1 236/65/1
f 237/79/1 238/80/1 239/67/1 240/66/1
f 241/81/1 242/82/1 243/69/1 244/68/1
f 245/82/1 246/83/1 247/70/1 248/69/1
f 249/83/1 250/84/1 251/71/1 252/70/1
f 253/84/1 254/85/1 255/72/1 256/71/1
f 257/85/1 258/86/1 259/73/1 260/72/1
f 261/86/1 262/87/1 263/74/1 264/73/1
f 265/87/1 266/88/1 267/75/1 268/74/1
f 269/88/1 270/89/1 271/76/1 272/75/1
f 273/89/1 274/90/1 275/77/1 276/76/1
f 277/90/1 278/91/1 279/78/1 280/77/1
f 281/91/1 282/92/1 283/79/1 284/78/1
f 285/92/1 286/93/1 287/80/1 288/79/1
f 289/94/1 290/95/1 291/82/1 292/81/1
f 293/95/1 294/96/1 295/83/1 296/82/1
f 297/96/1 298/97/1 299/84/1 300/83/1
f 301/97/1 302/98/1 303/85/1 304/84/1
f 305/98/1 306/99/1 307/86/1 308/85/1
f 309/99/1 310/100/1 311/87/1 312/86/1
f 313/100/1 314/101/1 315/88/1 316/87/1
f 317/101/1 318/102/1 319/89/1 320/88/1
f 321/102/1 322/103/1 323/90/1 324/89/1
f 325/103/1 326/104/1 327/91/1 328/90/1
f 329/104/1 330/105/1 331/92/1 332/91/1
f 333/105/1 334/106/1 335/93/1 336/92/1
f 337/107/1 338/108/1 339/95/1 340/94/1
f 341/108/1 342/109/1 343/96/1 344/95/1
f 345/109/1 346/110/1 347/97/1 348/96/1
f 349/110/1 350/111/1 351/98/1 352/97/1
f 353/111/1 354/112/1 355/99/1 356/98/1
f 357/112/1 358/113/1 359/100/1 360/99/1
f 361/113/1 362/114/1 363/101/1 364/100/1
f 365/114/1 366/115/1 367/102/1 368/101/1
f 369/115/1 370/116/1 371/103/1 372/102/1
f 373/116/1 374/117/1 375/104/1 376/103/1
f 377/117/1 378/118/1 379/105/1 380/104/1
f 381/118/1 382/119/1 383/106/1 384/105/1
f 385/120/1 386/121/1 387/108/1 388/107/1
f 389/121/1 390/122/1 391/109/1 392/108/1
f 393/122/1 394/123/1 395/110/1 396/109/1
f 397/123/1 398/124/1 399/111/1 400/110/1
f 401/124/1 402/125/1 403/112/1 404/111/1
f 405/125/1 406/126/1 407/113/1 408/112/1
f 409/126/1 410/127/1 411/114/1 412/113/1
f 413/127/1 414/128/1 415/115/1 416/114/1
f 417/128/1 418/129/1 419/116/1 420/115/1
f 421/129/1 422/130/1 423/117/1 424/116/1
f 425/130/1 426/131/1 427/118/1 428/117/1
f 429/131/1 430/132/1 431/119/1 432/118/1
f 433/133/1 434/134/1 435/121/1 436/120/1
f 437/134/1 438/135/1 439/122/1 440/121/1
f 441/135/1 442/136/1 443/123/1 444/122/1
f 445/136/1 446/137/1 447/124/1 448/123/1
f 449/137/1 450/138/1 451/125/1 452/124/1
f 453/138/1 454/139/1 455/126/1 456/125/1
f 457/139/1 458/140/1 459/127/1 460/126/1
f 461/140/1 462/141/1 463/128/1 464/127/1
f 465/141/1 466/142/1 467/129/1 468/128/1
f 469/142/1 470/143/1 471/130/1 472/129/1
f 473/143/1 474/144/1 475/131/1 476/130/1
f 477/144/1 478/145/1 479/132/1 480/131/1
f 481/146/1 482/147/1 483/134/1 484/133/1
f 485/147/1 486/148/1 487/135/1 488/134/1
f 489/148/1 490/149/1 491/136/1 492/135/1
f 493/149/1 494/150/1 495/137/1 496/136/1
f 497/150/1 498/151/1 499/138/1 500/137/1
f 501/151/1 502/152/1 503/139/1 504/138/1
f 505/152/1 506/153/1 507/140/1 508/139/1
f 509/153/1 510/154/1 511/141/1 512/140/1
f 513/154/1 514/155/1 515/142/1 516/141/1
f 517/155/1 518/156/1 519/143/1 520/142/1
f 521/156/1 522/157/1 523/144/1 524/143/1
f 525/157/1 526/158/1 527/145/1 528/144/1
f 529/159/1 530/160/1 531/147/1 532/146/1
f 533/160/1 534/161/1 535/148/1 536/147/1
f 537/161/1 538/162/1 539/149/1 540/148/1
f 541/162/1 542/163/1 543/150/1 544/149/1
f 545/163/1 546/164/1 547/151/1 548/150/1
f 549/164/1 550/165/1 551/152/1 552/151/1
f 553/165/1 554/166/1 555/153/1 556/152/1
f 557/166/1 558/167/1 559/154/1 560/153/1
f 561/167/1 562/168/1 563/155/1 564/154/1
f 565/168/1 566/169/1 567/156/1 568/155/1
f 569/169/1 570/170/1 571/157/1 572/156/1
f 573/170/1 574/171/1 575/158/1 576/157/1
f 577/172/1 578/173/1 579/160/1 580/159/1
f 581/173/1 582/174/1 583/161/1 584/160/1
f 585/174/1 586/175/1 587/162/1 588/161/1
f 589/175/1 590/176/1 591/163/1 592/162/1
f 593/176/1 594/177/1 595/164/1 596/163/1
f 597/177/1 598/178/1 599/165/1 600/164/1
f 601/178/1 602/179/1 603/166/1 604/165/1
f 605/179/1 606/180/1 607/167/1 608/166/1
f 609/180/1 610/181/1 611/168/1 612/167/1
f 613/181/1 614/182/1 615/169/1 616/168/1
f 617/182/1 618/183/1 619/170/1 620/169/1
f 621/183/1 622/184/1 623/171/1 624/170/1
f 625/185/1 626/186/1 627/187/1 628/188/1
f 629/186/1 630/189/1 631/172/1 632/187/1
f 633/189/1 634/190/1 635/173/1 636/172/1
f 637/190/1 638/191/1 639/174/1 640/173/1
f 641/191/1 642/192/1 643/175/1 644/174/1
f 645/192/1 646/193/1 647/176/1 648/175/1
f 649/193/1 650/194/1 651/177/1 652/176/1
f 653/194/1 654/195/1 655/178/1 656/177/1
f 657/195/1 658/196/1 659/179/1 660/178/1
f 661/196/1 662/197/1 663/180/1 664/179/1
f 665/197/1 666/198/1 667/181/1 668/180/1
f 669/198/1 670/199/1 671/182/1 672/181/1
f 673/199/1 674/200/1 675/183/1 676/182/1
f 677/200/1 678/201/1 679/184/1 680/183/1
f 681/202/1 682/203/1 683/186/1 684/185/1
f 685/203/1 686/204/1 687/189/1 688/186/1
f 689/204/1 690/205/1 691/190/1 692/189/1
f 693/205/1 694/206/1 695/191/1 696/190/1
f 697/206/1 698/207/1 699/192/1 700/191/1
f 701/207/1 702/208/1 703/193/1 704/192/1
f 705/208/1 706/209/1 707/194/1 708/193/1
f 709/209/1 710/210/1 711/195/1 712/194/1
f 713/210/1 714/211/1 715/196/1 716/195/1
f 717/211/1 718/212/1 719/197/1 720/196/1
f 721/212/1 722/213/1 723/198/1 724/197/1
f 725/213/1 726/214/1 727/199/1 728/198/1
f 729/215/1 730/216/1 731/203/1 732/202/1
f 733/216/1 734/217/1 735/204/1 736/203/1
f 737/217/1 738/218/1 739/205/1 740/204/1
f 741/218/1 742/219/1 743/206/1 744/205/1
f 745/219/1 746/220/1 747/207/1 748/206/1
f 749/220/1 750/221/1 751/208/1 752/207/1
f 753/221/1 754/222/1 755/209/1 756/208/1
f 757/222/1 758/223/1 759/210/1 760/209/1
f 761/223/1 762/224/1 763/211/1 764/210/1
f 765/224/1 766/225/1 767/212/1 768/211/1
f 769/225/1 770/226/1 771/213/1 772/212/1
f 773/226/1 774/227/1 775/214/1 776/213/1

