# Tiled2Unity generated file. Do not modify by hand.
# Wavefront file for 'Map_mesh_0043.obj'

# Vertices (Count = 48)
v -623 -470 0
v -624 -470 0
v -624 -469 0
v -623 -469 0
v -622 -471 0
v -623 -471 0
v -623 -470 0
v -622 -470 0
v -624 -471 0
v -625 -471 0
v -625 -470 0
v -624 -470 0
v -621 -472 0
v -622 -472 0
v -622 -471 0
v -621 -471 0
v -625 -472 0
v -626 -472 0
v -626 -471 0
v -625 -471 0
v -620 -473 0
v -621 -473 0
v -621 -472 0
v -620 -472 0
v -626 -473 0
v -627 -473 0
v -627 -472 0
v -626 -472 0
v -621 -474 0
v -622 -474 0
v -622 -473 0
v -621 -473 0
v -625 -474 0
v -626 -474 0
v -626 -473 0
v -625 -473 0
v -622 -475 0
v -623 -475 0
v -623 -474 0
v -622 -474 0
v -624 -475 0
v -625 -475 0
v -625 -474 0
v -624 -474 0
v -623 -476 0
v -624 -476 0
v -624 -475 0
v -623 -475 0

# Texture cooridinates (Count = 4)
vt 0 0
vt 1 0
vt 1 1
vt 0 1

# Normal
vn 0 0 -1

# Mesh description
g Map_mesh_0043

# Faces
f 1/1/1 2/2/1 3/3/1 4/4/1
f 5/1/1 6/2/1 7/3/1 8/4/1
f 9/1/1 10/2/1 11/3/1 12/4/1
f 13/1/1 14/2/1 15/3/1 16/4/1
f 17/1/1 18/2/1 19/3/1 20/4/1
f 21/1/1 22/2/1 23/3/1 24/4/1
f 25/1/1 26/2/1 27/3/1 28/4/1
f 29/1/1 30/2/1 31/3/1 32/4/1
f 33/1/1 34/2/1 35/3/1 36/4/1
f 37/1/1 38/2/1 39/3/1 40/4/1
f 41/1/1 42/2/1 43/3/1 44/4/1
f 45/1/1 46/2/1 47/3/1 48/4/1

